# xmcd
#
# Track frame offsets: 
#        150
#        17987
#        34507
#        53005
#        72182
#        85755
#        106497
#        124182
#        140957
#        157030
#        176230
#        195270
#
# Disc length: 2882 seconds
#
# Revision: 0
# Processed by: cddbd v1.5.2PL0 Copyright (c) Steve Scherf et al.
# Submitted via: ExactAudioCopy v1.0b3
#
DISCID=a50b400c
DTITLE=上田正樹 - Husky
DYEAR=1983
DGENRE=JPop
TTITLE0=レゲエであの娘を寝かせたら
TTITLE1=City Junction
TTITLE2=ライト・フット
TTITLE3=Goin' Down
TTITLE4=マリー
TTITLE5=Miss You Baby
TTITLE6=バック・ステップ・ダンス
TTITLE7=ララバイのかわりにI Love You
TTITLE8=震えるハート
TTITLE9=送らないぜ
TTITLE10=Colors
TTITLE11=おまえを救けにゆく
EXTD=
EXTT0=
EXTT1=
EXTT2=
EXTT3=
EXTT4=
EXTT5=
EXTT6=
EXTT7=
EXTT8=
EXTT9=
EXTT10=
EXTT11=
PLAYORDER=
